<svg width="350" height="350" viewBox="0 0 350 350" fill="none" xmlns="http://www.w3.org/2000/svg">
<rect width="350" height="350" rx="175" fill="black"/>
<path d="M226.516 76.1319C183.915 49.7156 160.224 51.5462 118.214 76.1319C148.24 89.3515 163.799 98.9235 172.559 148.161C178.811 110.064 188.931 93.1543 226.516 76.1319Z" fill="url(#paint0_linear_10_11)"/>
<path d="M164.019 294C48.5932 270.506 34.7767 184.507 70.1634 122.833C70.8947 157.308 76.5793 173.72 103.204 193.875C143.226 221.201 164.062 237.681 164.019 294Z" fill="url(#paint1_linear_10_11)"/>
<path d="M276.839 117.412C323.363 189.974 282.856 280.778 180.364 294C179.531 249.777 191.022 227.23 240.849 192.524C271.947 166.673 277.027 149.655 276.839 117.412Z" fill="url(#paint2_linear_10_11)"/>
<path d="M147.012 164.525C97.1743 194.614 59.8551 136.905 92.3929 102.696C119.187 110.34 133.966 115.791 156.115 145.708C158.511 165.934 162.518 176.614 171.645 195.171C180.139 178.893 184.5 168.885 189.851 145.708C205.466 124.891 219.135 115.451 252.503 102.696C286.861 150.729 238.284 188.624 197.883 167.214C188.576 185.453 182.806 195.656 171.645 213.451C161.361 196.51 155.866 186.129 147.012 164.525Z" fill="url(#paint3_linear_10_11)"/>
<defs>
<linearGradient id="paint0_linear_10_11" x1="172.171" y1="102.696" x2="172.171" y2="213.451" gradientUnits="userSpaceOnUse">
<stop stop-color="#E852FF"/>
<stop offset="1" stop-color="#00B17F"/>
</linearGradient>
<linearGradient id="paint1_linear_10_11" x1="172.171" y1="102.696" x2="172.171" y2="213.451" gradientUnits="userSpaceOnUse">
<stop stop-color="#E852FF"/>
<stop offset="1" stop-color="#00B17F"/>
</linearGradient>
<linearGradient id="paint2_linear_10_11" x1="172.171" y1="102.696" x2="172.171" y2="213.451" gradientUnits="userSpaceOnUse">
<stop stop-color="#E852FF"/>
<stop offset="1" stop-color="#00B17F"/>
</linearGradient>
<linearGradient id="paint3_linear_10_11" x1="172.171" y1="102.696" x2="172.171" y2="213.451" gradientUnits="userSpaceOnUse">
<stop stop-color="#E852FF"/>
<stop offset="1" stop-color="#00B17F"/>
</linearGradient>
</defs>
</svg>
